<svg xmlns="http://www.w3.org/2000/svg" viewBox="0 0 96 40" role="img" aria-labelledby="title">
  <title id="title">American Express</title>
  <rect width="96" height="40" rx="6" fill="#2E77BC"/>
  <path fill="#fff" d="M10 12h11l2.4 5.5L25.8 12h60.1v16H24.8l-1.4-3.5-1.5 3.5H10V12Zm6.8 3.2-3.7 9.5h2.5l.7-1.9h4.1l.7 1.9h2.7l-3.8-9.5h-3.2Zm.3 5.5 1.2-3.3 1.2 3.3h-2.4Zm11.4 4v-7.1l3.1 7.1h2.1l3.1-7.1v7.1h2.4v-9.5h-3.9l-2.6 6-2.6-6h-4v9.5h2.4Zm13.1 0h8v-2.1H44v-1.8h5.5v-2H44v-1.6h5.7v-2h-8.1v9.5Zm10.2 0h2.4v-3.4h1l2.9 3.4h3l-3.3-3.7a2.8 2.8 0 0 0 2.6-2.8c0-1.9-1.5-3-3.7-3h-4.9v9.5Zm2.4-5.4v-2.1h2.1c1 0 1.5.4 1.5 1s-.5 1.1-1.5 1.1h-2.1Zm8.5 5.4h2.4v-9.5h-2.4v9.5Zm9.1.2c2.1 0 3.6-.7 4.6-1.9l-1.7-1.5c-.7.7-1.5 1.2-2.7 1.2-1.7 0-2.9-1.1-2.9-2.8s1.2-2.8 2.9-2.8c1 0 1.9.4 2.6 1.1l1.6-1.6c-.9-1-2.4-1.7-4.2-1.7-3.2 0-5.4 2-5.4 5s2.2 4.8 5.2 4.8Zm7.4-.2h2.4v-3.3h4v3.3H88v-9.5h-2.4v3.1h-4v-3.1h-2.4v9.5Z"/>
</svg>
