<svg xmlns="http://www.w3.org/2000/svg" viewBox="0 0 96 40" role="img" aria-labelledby="title">
  <title id="title">Bankkart</title>
  <rect width="96" height="40" rx="6" fill="#fff"/>
  <path fill="#E30613" d="M16 12h15.4c4 0 6.5 1.9 6.5 4.8 0 1.9-1 3.2-2.7 3.9 2 .7 3.1 2 3.1 4.1 0 3.2-2.7 5.2-7.1 5.2H16V12Zm6 7h8.3c1.1 0 1.8-.5 1.8-1.4s-.7-1.4-1.8-1.4H22V19Zm0 6.7h8.7c1.2 0 1.9-.5 1.9-1.5s-.7-1.5-1.9-1.5H22v3Z"/>
  <path fill="#111827" d="M43.2 30V12h5.7v7.1l6.8-7.1h7l-7.9 8 8.5 10h-7.1l-5.4-6.5-1.9 1.9V30h-5.7Zm23.1 0V12H72l7.7 9.3V12h5.6v18h-5.1l-8.3-10v10h-5.6Z"/>
</svg>
