<svg xmlns="http://www.w3.org/2000/svg" viewBox="0 0 96 40" role="img" aria-labelledby="title">
  <title id="title">Visa</title>
  <rect width="96" height="40" rx="6" fill="#fff"/>
  <path fill="#1434CB" d="M38.4 27.8h-5.1l3.2-19.4h5.1l-3.2 19.4Zm18.5-18.9a12.6 12.6 0 0 0-4.6-.8c-5.1 0-8.6 2.6-8.7 6.4 0 2.8 2.6 4.4 4.6 5.3 2 .9 2.7 1.5 2.7 2.3 0 1.2-1.6 1.8-3 1.8-2 0-3.1-.3-4.8-1l-.7-.3-.7 4.3c1.2.5 3.4 1 5.7 1 5.4 0 8.9-2.6 9-6.6 0-2.2-1.4-3.9-4.3-5.3-1.8-.9-2.9-1.5-2.9-2.4 0-.8.9-1.6 2.9-1.6 1.6 0 2.8.3 3.8.7l.5.2.7-4Zm13.2-.5h-3.9c-1.2 0-2.1.3-2.7 1.6l-7.5 17.8h5.3s.9-2.3 1.1-2.9h6.5c.2.7.6 2.9.6 2.9h4.7L70.1 8.4Zm-6.3 12.5 2-5.2.6-1.6.4 1.4 1.2 5.4h-4.2ZM29 8.4l-5 13.2-.5-2.6c-.9-3-3.8-6.3-7-8l4.6 16.8h5.4l8-19.4H29Z"/>
  <path fill="#F7B600" d="M19.5 8.4h-8.2l-.1.4c6.4 1.6 10.6 5.5 12.3 10.2l-1.8-9c-.3-1.2-1.2-1.6-2.2-1.6Z"/>
</svg>
